<svg width="362" height="362" viewBox="0 0 362 362" fill="none" xmlns="http://www.w3.org/2000/svg">
<rect x="7" y="7" width="348" height="348" rx="30" stroke="white" stroke-opacity="0.5" stroke-width="13"/>
<rect x="11" y="11" width="340" height="340" rx="30" fill="#393939"/>
<line x1="88" y1="94" x2="88" y2="269" stroke="white" stroke-width="8"/>
<path d="M89.25 54H86.75C76.3947 54 68 62.9543 68 74C68 85.0457 76.3947 94 86.75 94H89.25C99.6053 94 108 85.0457 108 74C108 62.9543 99.6053 54 89.25 54Z" fill="white"/>
<path d="M89.25 161H86.75C76.3947 161 68 169.954 68 181C68 192.046 76.3947 201 86.75 201H89.25C99.6053 201 108 192.046 108 181C108 169.954 99.6053 161 89.25 161Z" fill="white"/>
<path d="M89.25 268H86.75C76.3947 268 68 276.954 68 288C68 299.046 76.3947 308 86.75 308H89.25C99.6053 308 108 299.046 108 288C108 276.954 99.6053 268 89.25 268Z" fill="white"/>
<path d="M290 59H142C133.716 59 127 65.7157 127 74C127 82.2843 133.716 89 142 89H290C298.284 89 305 82.2843 305 74C305 65.7157 298.284 59 290 59Z" fill="#FF006E"/>
<path d="M290 167H142C133.716 167 127 173.716 127 182C127 190.284 133.716 197 142 197H290C298.284 197 305 190.284 305 182C305 173.716 298.284 167 290 167Z" fill="#8338EC"/>
<path d="M290 274H142C133.716 274 127 280.716 127 289C127 297.284 133.716 304 142 304H290C298.284 304 305 297.284 305 289C305 280.716 298.284 274 290 274Z" fill="#8DFCB2"/>
</svg>
